<svg width="37" height="37" viewBox="0 0 37 37" fill="none" xmlns="http://www.w3.org/2000/svg">
<path d="M28.8401 10.3402C29.4422 9.73811 29.4422 8.76198 28.8401 8.15992C28.238 7.55786 27.2619 7.55786 26.6599 8.15992L18.5 16.3198L10.3401 8.15992C9.73804 7.55786 8.76191 7.55786 8.15986 8.15992C7.5578 8.76198 7.5578 9.73811 8.15986 10.3402L16.3197 18.5L8.15986 26.6599C7.5578 27.262 7.5578 28.2381 8.15986 28.8402C8.76191 29.4422 9.73804 29.4422 10.3401 28.8402L18.5 20.6803L26.6599 28.8402C27.2619 29.4422 28.238 29.4422 28.8401 28.8402C29.4422 28.2381 29.4422 27.262 28.8401 26.6599L20.6802 18.5L28.8401 10.3402Z" fill="#2D3648"/>
</svg>
